<svg width="99" height="100" viewBox="0 0 99 100" fill="none" xmlns="http://www.w3.org/2000/svg">
<path d="M80.5817 46.1374C84.9917 50.7621 87.4261 55.9345 87.8849 61.6547C88.5306 69.5203 85.5371 76.6155 78.9044 82.9404C72.6368 88.917 64.7586 92.5955 55.2698 93.9758L52.4884 83.3832C59.7766 82.0101 65.9445 78.9749 70.9923 74.2776C72.4527 72.885 73.5912 71.2766 74.4076 69.4524C76.3618 64.8005 75.453 60.497 71.6813 56.5417C70.5208 55.3247 69.2039 54.431 67.7307 53.8608C64.5493 52.5958 59.8409 53.0191 53.6057 55.1309C46.1704 57.6899 41.6758 59.1294 40.1219 59.4493C31.2742 61.3801 23.775 59.1204 17.6242 52.6702C13.1562 47.9848 10.9377 42.4904 10.9685 36.1871C11.2016 28.8776 14.2086 22.4666 19.9894 16.9541C21.8758 15.1553 23.9942 13.5999 26.3448 12.2879C33.3937 8.47081 42.367 8.72088 48.9563 11.7321L45.3969 22.6201C44.8662 22.429 42.1509 21.614 41.5593 21.481C36.1744 20.342 31.4739 21.6874 27.4578 25.5171C26.0582 26.8517 25.0111 28.3731 24.3163 30.0813C22.3041 34.6723 23.1549 38.915 26.8685 42.8094C27.971 43.9656 29.2299 44.7984 30.6451 45.3078C33.7076 46.57 38.387 46.1162 44.683 43.9464C51.9995 41.3845 56.4346 39.9436 57.9885 39.6237C67.0159 37.6377 74.547 39.809 80.5817 46.1374Z" fill="#75BFB8" fill-opacity="0.913725"/>
<path d="M84.8769 95.4706L42.6468 96.8061L39.9078 9.38212C43.7084 9.81119 45.7696 10.3321 48.9481 11.7156C52.2462 13.1333 52.9276 14.7109 53.4684 18.0997L55.6544 85.1642L84.5221 84.2512L84.8769 95.4706Z" fill="#255459"/>
<path d="M49.869 28.6252C49.8869 29.232 49.7304 29.7521 49.3995 30.1854C48.9456 30.7821 48.2835 31.0932 47.4132 31.1188C46.5908 31.143 45.8006 30.9026 45.0425 30.3975L45.5187 29.4725C46.1209 29.8383 46.7494 30.0156 47.4043 30.0043C47.596 29.9987 47.7786 29.9574 47.9521 29.8803C48.3856 29.6758 48.5947 29.314 48.5794 28.795C48.5747 28.6353 48.5385 28.4886 48.4706 28.3547C48.3262 28.0633 47.9666 27.7942 47.392 27.5474C46.7041 27.256 46.2952 27.0722 46.1651 26.9961C45.4174 26.5706 45.0311 25.9347 45.0061 25.0884C44.9881 24.4736 45.1803 23.9445 45.5828 23.5011C46.0635 22.9995 46.6831 22.7375 47.4416 22.7152C47.6891 22.7079 47.9375 22.7326 48.1869 22.7892C48.9274 22.9672 49.4347 23.3718 49.709 24.003L48.7661 24.5462C48.7407 24.499 48.7113 24.4519 48.678 24.4049C48.3699 23.9825 47.9524 23.779 47.4254 23.7945C47.2417 23.7999 47.0711 23.8409 46.9136 23.9174C46.4798 24.114 46.2705 24.4678 46.2855 24.9788C46.29 25.1305 46.326 25.2693 46.3937 25.3951C46.5299 25.6788 46.8893 25.9439 47.4719 26.1905C48.1515 26.4742 48.5564 26.6541 48.6865 26.7301C49.4504 27.1632 49.8446 27.7949 49.869 28.6252ZM50.3397 44.6183C50.3575 45.2251 50.201 45.7452 49.8701 46.1784C49.4162 46.7751 48.7541 47.0863 47.8838 47.1119C47.0614 47.1361 46.2712 46.8957 45.5131 46.3906L45.9894 45.4655C46.5915 45.8314 47.22 46.0087 47.875 45.9974C48.0666 45.9918 48.2492 45.9504 48.4227 45.8734C48.8562 45.6689 49.0653 45.3071 49.0501 44.7881C49.0454 44.6284 49.0091 44.4817 48.9412 44.3478C48.7968 44.0564 48.4373 43.7873 47.8626 43.5405C47.1748 43.249 46.7658 43.0653 46.6357 42.9892C45.888 42.5637 45.5017 41.9278 45.4768 41.0814C45.4587 40.4666 45.6509 39.9376 46.0534 39.4942C46.5341 38.9926 47.1537 38.7306 47.9122 38.7083C48.1597 38.701 48.4082 38.7256 48.6576 38.7822C49.398 38.9602 49.9054 39.3648 50.1797 39.9961L49.2367 40.5393C49.2113 40.4921 49.182 40.445 49.1486 40.398C48.8405 39.9755 48.423 39.7721 47.896 39.7876C47.7124 39.793 47.5418 39.834 47.3842 39.9105C46.9505 40.1071 46.7411 40.4609 46.7562 40.9719C46.7606 41.1236 46.7967 41.2623 46.8643 41.3882C47.0005 41.6719 47.3599 41.937 47.9426 42.1836C48.6222 42.4673 49.027 42.6471 49.1571 42.7232C49.921 43.1562 50.3152 43.7879 50.3397 44.6183ZM50.8103 60.6114C50.8281 61.2182 50.6716 61.7382 50.3408 62.1715C49.8868 62.7682 49.2247 63.0794 48.3544 63.105C47.5321 63.1292 46.7418 62.8887 45.9838 62.3836L46.46 61.4586C47.0621 61.8245 47.6907 62.0018 48.3456 61.9905C48.5372 61.9848 48.7198 61.9435 48.8934 61.8665C49.3269 61.6619 49.536 61.3002 49.5207 60.7812C49.516 60.6215 49.4797 60.4747 49.4119 60.3409C49.2674 60.0494 48.9079 59.7803 48.3332 59.5335C47.6454 59.2421 47.2365 59.0584 47.1064 58.9823C46.3586 58.5568 45.9723 57.9208 45.9474 57.0745C45.9293 56.4597 46.1215 55.9306 46.524 55.4873C47.0047 54.9856 47.6243 54.7237 48.3828 54.7014C48.6304 54.6941 48.8788 54.7187 49.1282 54.7753C49.8686 54.9533 50.376 55.3579 50.6503 55.9891L49.7073 56.5323C49.682 56.4851 49.6526 56.438 49.6193 56.3911C49.3112 55.9686 48.8936 55.7651 48.3667 55.7807C48.183 55.7861 48.0124 55.827 47.8548 55.9036C47.4211 56.1002 47.2118 56.4539 47.2268 56.9649C47.2313 57.1166 47.2673 57.2554 47.3349 57.3813C47.4711 57.665 47.8306 57.9301 48.4132 58.1767C49.0928 58.4603 49.4977 58.6402 49.6278 58.7163C50.3917 59.1493 50.7859 59.781 50.8103 60.6114ZM51.2809 76.6045C51.2988 77.2113 51.1423 77.7313 50.8114 78.1646C50.3575 78.7613 49.6954 79.0725 48.8251 79.0981C48.0027 79.1223 47.2125 78.8818 46.4544 78.3767L46.9306 77.4517C47.5328 77.8175 48.1613 77.9948 48.8163 77.9836C49.0079 77.9779 49.1905 77.9366 49.364 77.8596C49.7975 77.655 50.0066 77.2932 49.9913 76.7743C49.9866 76.6146 49.9504 76.4678 49.8825 76.3339C49.7381 76.0425 49.3785 75.7734 48.8039 75.5266C48.1161 75.2352 47.7071 75.0514 47.577 74.9754C46.8293 74.5498 46.443 73.9139 46.4181 73.0676C46.4 72.4528 46.5922 71.9237 46.9947 71.4803C47.4754 70.9787 48.095 70.7168 48.8535 70.6944C49.101 70.6871 49.3494 70.7118 49.5988 70.7684C50.3393 70.9464 50.8466 71.351 51.1209 71.9822L50.178 72.5254C50.1526 72.4782 50.1232 72.4311 50.0899 72.3842C49.7818 71.9617 49.3643 71.7582 48.8373 71.7737C48.6536 71.7791 48.483 71.8201 48.3255 71.8967C47.8917 72.0932 47.6824 72.447 47.6974 72.958C47.7019 73.1097 47.7379 73.2485 47.8056 73.3744C47.9418 73.658 48.3012 73.9232 48.8838 74.1697C49.5634 74.4534 49.9683 74.6333 50.0984 74.7094C50.8623 75.1424 51.2565 75.7741 51.2809 76.6045ZM51.7516 92.5975C51.7694 93.2043 51.6129 93.7244 51.282 94.1577C50.8281 94.7544 50.166 95.0655 49.2957 95.0912C48.4733 95.1154 47.6831 94.8749 46.9251 94.3698L47.4013 93.4448C48.0034 93.8106 48.6319 93.9879 49.2869 93.9766C49.4785 93.971 49.6611 93.9297 49.8346 93.8526C50.2681 93.6481 50.4772 93.2863 50.462 92.7673C50.4573 92.6076 50.421 92.4609 50.3531 92.327C50.2087 92.0356 49.8492 91.7665 49.2745 91.5197C48.5867 91.2283 48.1777 91.0445 48.0476 90.9684C47.2999 90.5429 46.9136 89.907 46.8887 89.0607C46.8706 88.4459 47.0628 87.9168 47.4653 87.4734C47.946 86.9718 48.5656 86.7098 49.3241 86.6875C49.5716 86.6802 49.8201 86.7049 50.0695 86.7615C50.8099 86.9395 51.3173 87.3441 51.5916 87.9753L50.6486 88.5185C50.6232 88.4713 50.5939 88.4242 50.5605 88.3772C50.2524 87.9548 49.8349 87.7513 49.3079 87.7668C49.1243 87.7722 48.9537 87.8132 48.7961 87.8897C48.3624 88.0863 48.153 88.4401 48.1681 88.9511C48.1725 89.1028 48.2086 89.2416 48.2762 89.3674C48.4124 89.6511 48.7718 89.9162 49.3545 90.1628C50.0341 90.4465 50.4389 90.6264 50.569 90.7024C51.3329 91.1355 51.7271 91.7672 51.7516 92.5975ZM58.0696 93.85L58.1446 94.7708C58.0493 94.7896 57.9499 94.8085 57.8466 94.8275C56.8751 94.944 56.3746 94.5033 56.3453 93.5052L56.2656 90.7985C56.2607 90.6308 56.24 90.4716 56.2036 90.3209C56.0613 89.8296 55.7706 89.5904 55.3314 89.6033C55.1638 89.6083 55.0053 89.6529 54.8559 89.7372C54.3691 90.0312 54.1394 90.6453 54.1669 91.5795L54.2614 94.7892L53.0158 94.8258L52.7603 86.1429L54.0059 86.1062L54.0947 89.5319C54.5007 88.9365 55.0349 88.6251 55.6974 88.5977C55.9848 88.5892 56.25 88.6373 56.4928 88.7421C57.1409 89.0427 57.4792 89.676 57.5077 90.6421L57.5884 93.3847C57.5905 93.4566 57.5965 93.5243 57.6063 93.588C57.6526 93.8024 57.807 93.8897 58.0696 93.85ZM61.4339 93.7151C61.6175 93.7097 61.7881 93.6687 61.9457 93.5921C62.4966 93.3042 62.7565 92.6293 62.7252 91.5674C62.7144 91.2001 62.6688 90.8738 62.5885 90.5885C62.3739 89.8116 61.9552 89.4324 61.3324 89.4507C61.1328 89.4566 60.9465 89.51 60.7737 89.611C60.2475 89.9222 59.9995 90.5927 60.0298 91.6227C60.0411 92.006 60.0911 92.3481 60.1799 92.6492C60.4091 93.3776 60.8271 93.7329 61.4339 93.7151ZM61.3264 88.432C61.8374 88.417 62.2878 88.5156 62.6776 88.7279C63.5146 89.1987 63.9534 90.1248 63.994 91.5061C64.014 92.1847 63.9155 92.775 63.6985 93.2768C63.2786 94.2162 62.5178 94.7021 61.4159 94.7345C60.881 94.7502 60.4143 94.6401 60.0157 94.4041C59.2103 93.9164 58.788 93.0098 58.749 91.6844C58.7276 90.9578 58.8489 90.3269 59.1129 89.7917C59.5586 88.9156 60.2964 88.4623 61.3264 88.432ZM66.4894 94.4294L65.2439 94.466L65.0662 88.4298L66.2279 88.3957L66.3065 89.4362C66.6115 88.6681 67.1312 88.2692 67.8656 88.2396C67.9694 88.2365 68.0775 88.2453 68.19 88.266L68.0945 89.5035C67.9088 89.437 67.7321 89.4062 67.5644 89.4112C67.3648 89.4171 67.1827 89.4744 67.0181 89.5831C66.5794 89.8837 66.3718 90.4332 66.3953 91.2316L66.4894 94.4294ZM72.3611 93.9569C71.8987 94.2662 71.448 94.4313 71.0091 94.4522C70.8734 94.4562 70.7373 94.4482 70.6009 94.4282C69.8374 94.2829 69.4403 93.6872 69.4095 92.6413L69.3109 89.2879L68.4845 89.3122L68.457 88.378L69.2834 88.3537L69.2358 86.7369L70.4813 86.7002L70.5289 88.317L71.8463 88.2783L71.8738 89.2124L70.5564 89.2512L70.6512 92.4729C70.6778 93.1034 70.9148 93.4201 71.3624 93.4229C71.5461 93.4175 71.7596 93.3433 72.0032 93.2003L72.3611 93.9569Z" fill="#76BAB3"/>
</svg>
